<svg width="17" height="16" viewBox="0 0 17 16" fill="none" xmlns="http://www.w3.org/2000/svg">
<path d="M8.95324 16.0001C8.92021 16.0001 8.88711 16.0001 8.85408 16.0001C8.74512 15.983 8.63482 15.9846 8.52519 15.9765C8.32412 15.9617 8.13062 15.9088 7.93845 15.8526C7.49593 15.7234 7.0822 15.529 6.7018 15.2661C6.10667 14.8548 5.62533 14.3363 5.27514 13.6962C5.25503 13.6595 5.2341 13.6249 5.26779 13.5852C5.3124 13.5619 5.3605 13.5724 5.40689 13.5723C6.3626 13.5715 7.31838 13.5721 8.27409 13.5714C8.46693 13.5712 8.649 13.5344 8.80435 13.4067C8.85467 13.3653 8.89483 13.3165 8.93268 13.2645C8.96482 13.2204 8.99385 13.1739 9.0291 13.132C9.11142 13.0648 9.20627 13.0137 9.27723 12.9321C9.39814 12.7929 9.44743 12.6264 9.4573 12.4453C9.45975 12.4 9.45804 12.3546 9.45804 12.3092C9.45804 10.2653 9.45789 8.22141 9.45871 6.17755C9.45871 6.117 9.44394 6.0524 9.48677 5.99794C9.50785 5.98359 9.53197 5.98577 9.55535 5.98577C10.6458 5.986 11.7361 5.98427 12.8265 5.98652C13.2772 6.05789 13.4784 6.43603 13.4782 6.789C13.4772 8.39155 13.4841 9.99409 13.4744 11.5966C13.4707 12.1966 13.3405 12.7758 13.0931 13.3246C12.9323 13.682 12.7376 14.0183 12.4931 14.3253C12.1477 14.7591 11.741 15.1198 11.2679 15.4047C10.8213 15.6735 10.3413 15.8525 9.83317 15.9552C9.68294 15.9855 9.52878 15.9826 9.37632 15.9929C9.35806 15.9942 9.33854 15.9867 9.32169 15.9999C9.29334 15.9999 9.26506 15.9999 9.23671 15.9999C9.20835 15.9886 9.18007 15.9886 9.15172 15.9999C9.11869 15.9999 9.08559 15.9999 9.05256 15.9999C9.01938 15.9887 8.98635 15.9887 8.95324 16.0001Z" fill="#7A82EA"/>
<path d="M16.2933 6.00468C16.6287 6.0161 16.9253 6.28051 16.9854 6.62162C16.9882 6.63709 16.9817 6.65595 17.0001 6.66631C17.0001 6.68539 17.0001 6.70455 17.0001 6.72363C16.9863 6.75082 16.9933 6.77996 16.9933 6.80806C16.9929 8.15123 16.9929 9.49447 16.9929 10.8376C16.9967 10.8807 16.985 10.9248 17 10.9674C17 10.9913 17 11.0151 17 11.039C16.9829 11.135 16.9865 11.2328 16.9762 11.3294C16.9541 11.5359 16.8862 11.73 16.8063 11.9186C16.6608 12.2623 16.4578 12.5694 16.1906 12.8288C15.7391 13.2672 15.2046 13.5352 14.5805 13.611C14.1061 13.6685 13.6448 13.6131 13.1987 13.4374C13.1656 13.4244 13.1345 13.4069 13.1018 13.3934C13.0756 13.3826 13.0576 13.3659 13.0611 13.3342C13.1007 13.227 13.1409 13.1199 13.1798 13.0124C13.3053 12.6654 13.3827 12.3076 13.4182 11.9397C13.4377 11.7374 13.444 11.5352 13.4439 11.3322C13.4432 9.81522 13.4442 8.29831 13.4428 6.78132C13.4426 6.51435 13.3417 6.29433 13.1236 6.13508C13.0357 6.07086 12.9367 6.0351 12.8325 6.01047C12.8498 5.99131 12.8725 6.00002 12.8926 6.00002C14.0075 5.99957 15.1225 5.99957 16.2374 5.99972C16.2561 5.99972 16.2752 5.99672 16.2933 6.00468Z" fill="#5059C8"/>
<path d="M6.78863 3.18271C6.64545 2.53355 6.72465 1.91271 7.04849 1.33468C7.45449 0.610101 8.07367 0.180581 8.88324 0.0316994C8.93972 0.0213332 8.99947 0.0291454 9.05254 0C9.08089 0 9.10917 0 9.13753 0C9.17056 0.0114929 9.20366 0.0114929 9.23669 0C9.27447 0 9.31225 0 9.35003 0C9.38781 0.0116431 9.42559 0.0116431 9.46337 0C9.48697 0 9.51058 0 9.53418 0C9.59824 0.0324506 9.66979 0.027568 9.73763 0.0396618C10.794 0.227229 11.6332 1.07245 11.8172 2.13708C12.0343 3.39244 11.3534 4.59769 10.1738 5.04186C9.95422 5.12448 9.72724 5.17804 9.49187 5.18826C9.4486 5.15521 9.45892 5.10646 9.45877 5.06259C9.45736 4.69714 9.45884 4.3317 9.45766 3.96633C9.45721 3.82744 9.42463 3.69583 9.35374 3.5767C9.21309 3.34038 8.99761 3.23401 8.73197 3.23236C8.14671 3.22868 7.56138 3.23131 6.97612 3.23116C6.94071 3.23116 6.90531 3.23108 6.86998 3.22958C6.83465 3.22808 6.80563 3.21636 6.78863 3.18271Z" fill="#7A82EA"/>
<path d="M0 4.21497C0.0231579 4.19439 0.0211539 4.16396 0.0282052 4.1376C0.103543 3.85553 0.367113 3.6256 0.632984 3.61118C0.660446 3.60036 0.689023 3.60592 0.717005 3.60592C1.64399 3.60554 2.57105 3.60562 3.49781 3.60562C3.54806 3.60382 3.53923 3.63319 3.52297 3.66038C3.50679 3.68742 3.47792 3.70162 3.4515 3.71709C2.81725 4.08787 2.18308 4.45887 1.54854 4.82913C1.06705 5.11006 0.587261 5.39423 0.103097 5.67051C0.0697707 5.68952 0.02583 5.72708 0.00712552 5.65166C0.00712552 5.22229 0.00727397 4.79307 0.0067544 4.36385C0.0067544 4.33816 0.0133603 4.31134 0 4.28671C0 4.26274 0 4.23886 0 4.21497Z" fill="#5860C1"/>
<path d="M0.157923 12.1139C0.0912693 12.0397 0.0545284 11.9501 0.026917 11.8555C0.0199399 11.8315 0.0238738 11.8025 0.00012207 11.7848C0.00012207 11.7609 0.00012207 11.737 0.00012207 11.7131C0.0160803 11.6002 0.00286836 11.4866 0.00724759 11.3735C0.0162287 11.3292 0.0511883 11.3083 0.0853314 11.2884C0.517613 11.0348 0.951008 10.783 1.38344 10.5298C1.75471 10.3124 2.1262 10.0954 2.49762 9.87811C2.88328 9.65254 3.26873 9.42651 3.65507 9.20199C3.70621 9.17231 3.75713 9.14227 3.80901 9.11402C3.84567 9.09412 3.88123 9.08991 3.90661 9.13363C3.92183 9.20912 3.91567 9.28552 3.915 9.36131C3.91314 9.56097 3.92287 9.76071 3.90936 9.96007C3.86594 10.0235 3.79416 10.0469 3.73248 10.0829C3.28135 10.346 2.83155 10.6114 2.38004 10.8737C1.95912 11.1182 1.53938 11.3648 1.11853 11.6093C0.838632 11.772 0.559253 11.9354 0.280318 12.0999C0.241276 12.123 0.203348 12.1512 0.157923 12.1139Z" fill="#4950B8"/>
<path d="M16.2932 6.00523C16.2602 6.00658 16.2273 6.00906 16.1944 6.00906C15.0996 6.00928 14.0049 6.00921 12.9102 6.00928C12.8843 6.00928 12.8583 6.01041 12.8324 6.01101C12.4621 6.0011 12.0918 6.00756 11.7215 6.00823C11.0115 6.00951 10.3016 6.00861 9.59153 6.00868C9.5585 6.00868 9.52555 6.00981 9.49252 6.01041C9.46758 6.0373 9.4347 6.03978 9.4013 6.04068C9.34229 6.04234 9.28328 6.03963 9.22435 6.04256C9.15413 6.04609 9.13379 6.06757 9.12964 6.13976C9.12756 6.17552 9.12875 6.21135 9.12875 6.24718C9.12875 8.12398 9.12875 10.0008 9.12867 11.8776C9.12867 11.9468 9.12949 12.0161 9.12711 12.0852C9.08228 12.5483 8.76928 12.8374 8.33054 12.8366C8.2457 12.8364 8.16079 12.8379 8.07595 12.8357C8.04604 12.8349 8.0136 12.8395 7.99044 12.8121C7.97924 12.765 8.01375 12.7606 8.04381 12.7582C8.40024 12.7296 8.66611 12.4117 8.66692 12.0373C8.66715 11.9473 8.6791 11.8576 8.65416 11.769C8.6664 11.5688 8.68014 11.3687 8.65705 11.1685C8.68043 11.0586 8.66596 10.9488 8.65698 10.8389C8.66381 10.6692 8.69461 10.4997 8.65839 10.3299C8.6549 10.3136 8.65534 10.2969 8.6569 10.2803C8.65943 10.2638 8.66344 10.2475 8.66321 10.2308C8.65987 9.98598 8.67286 9.74147 8.67739 9.49682C8.67828 9.44671 8.66091 9.39879 8.66433 9.34876C8.68214 9.12409 8.6834 8.89934 8.669 8.67436C8.66781 8.65536 8.66529 8.6365 8.67026 8.6178C8.68429 8.44097 8.6739 8.26385 8.67709 8.08687C8.67709 7.91012 8.67709 7.73344 8.67709 7.55669C8.67917 7.41277 8.67917 7.26892 8.65683 7.1262C8.66767 6.94682 8.6958 6.76751 8.65831 6.58791C8.6549 6.57161 8.65534 6.55486 8.65683 6.53818C8.67338 6.39088 8.65928 6.24305 8.66559 6.09559C8.66715 6.05909 8.65787 6.01725 8.69862 5.99283C8.84951 5.99351 9.00049 5.99486 9.15138 5.99471C10.0811 5.99396 11.0108 5.99186 11.9406 5.99223C13.3612 5.99276 14.7817 5.99494 16.2022 5.99666C16.2327 5.99674 16.2638 5.99276 16.2932 6.00523Z" fill="#464B86"/>
<path d="M9.09364 12.1002C9.09386 10.1128 9.09401 8.12542 9.09453 6.13805C9.09461 5.98985 9.07946 6.01035 9.22361 6.00915C9.31327 6.0084 9.40293 6.0099 9.49267 6.01043C9.4923 6.27552 9.49163 6.5406 9.49156 6.80569C9.49148 8.66859 9.49111 10.5315 9.49185 12.3944C9.492 12.7398 9.3532 12.9967 9.03923 13.1471C9.03597 13.1441 9.0327 13.141 9.02944 13.1379C9.01689 13.1175 9.02216 13.0963 9.02773 13.0755C9.05876 12.959 9.0664 12.8401 9.06121 12.7203C9.05215 12.5125 9.07249 12.3063 9.09364 12.1002Z" fill="#6E76D2"/>
<path d="M14.8229 1.60156C15.8063 1.60081 16.6033 2.40637 16.6029 3.40077C16.6025 4.39396 15.8017 5.20335 14.8217 5.20095C13.8417 5.19862 13.048 4.39479 13.0465 3.4031C13.045 2.40719 13.8386 1.60239 14.8229 1.60156Z" fill="#5059C8"/>
<path d="M8.69853 5.99238C8.69809 6.17423 8.69764 6.35609 8.6972 6.53803C8.68376 6.64236 8.68888 6.74738 8.69297 6.85157C8.69616 6.93239 8.66439 6.98182 8.59841 7.01878C8.37165 7.14587 8.14905 7.28026 7.9243 7.41104C7.573 7.61551 7.22199 7.82065 6.87106 8.02579C6.48339 8.25242 6.09542 8.47853 5.70782 8.70515C5.4467 8.85787 5.18588 9.01118 4.92387 9.16247C4.88757 9.18342 4.85172 9.21249 4.80718 9.17989C4.79115 9.15901 4.79546 9.1343 4.79538 9.11086C4.79501 8.83368 4.7962 8.5565 4.7942 8.27931C4.79382 8.22756 4.81082 8.19556 4.85506 8.16979C5.15344 7.99575 5.45175 7.8214 5.75013 7.64736C6.10373 7.44116 6.45704 7.23436 6.81064 7.02802C7.25821 6.76683 7.70571 6.5055 8.15276 6.24349C8.29364 6.16094 8.43415 6.07763 8.57614 5.99726C8.63485 5.96406 8.65237 5.92192 8.65177 5.85829C8.64992 5.64804 8.64977 5.43771 8.65207 5.22746C8.65244 5.19155 8.6419 5.14799 8.6894 5.12891C8.69304 5.13003 8.6966 5.13116 8.70024 5.13236C8.6998 5.41901 8.6992 5.70565 8.69853 5.99238Z" fill="#4A52B9"/>
<path d="M6.78857 3.18262C6.82131 3.20155 6.85731 3.19704 6.89241 3.19704C7.511 3.19719 8.12951 3.19629 8.74809 3.19764C8.9557 3.19809 9.13606 3.27193 9.28199 3.42292C9.42049 3.56631 9.48833 3.74277 9.49026 3.94085C9.49419 4.35655 9.49167 4.77232 9.49182 5.18802C9.35977 5.20537 9.22765 5.20552 9.09546 5.18877C9.05634 5.1603 9.06236 5.11733 9.06213 5.07752C9.06095 4.84338 9.06213 4.60916 9.06147 4.37503C9.0602 3.93935 8.76205 3.637 8.33066 3.63167C8.23646 3.63054 8.14279 3.61394 8.04808 3.61987C7.70049 3.6198 7.35305 3.62017 7.00561 3.61942C6.97198 3.61935 6.93257 3.62926 6.91461 3.58472C6.85857 3.45529 6.81589 3.32143 6.78857 3.18262Z" fill="#6E76D2"/>
<path d="M8.06215 3.5999C8.20547 3.60343 8.34939 3.58653 8.49205 3.61214C8.83727 3.67397 9.09045 3.97473 9.09364 4.33079C9.09624 4.61676 9.09505 4.90281 9.09549 5.18878C8.961 5.19035 8.83111 5.1588 8.70047 5.13251C8.69854 5.13477 8.69609 5.13597 8.6932 5.13612C8.66254 5.1093 8.66648 5.07219 8.66522 5.03711C8.66084 4.9164 8.66062 4.79501 8.67056 4.6752C8.68147 4.54382 8.67353 4.41522 8.65364 4.28632C8.64926 4.08456 8.55663 3.92696 8.41271 3.79513C8.31622 3.73744 8.22113 3.6769 8.10831 3.65526C8.08753 3.65128 8.06912 3.64001 8.05814 3.61981C8.05502 3.61222 8.05643 3.60561 8.06215 3.5999Z" fill="#464B86"/>
<path d="M8.69754 9.34778C8.69754 9.65846 8.69762 9.96907 8.69762 10.2798C8.68381 10.3745 8.69064 10.4699 8.69279 10.5647C8.6942 10.6262 8.66986 10.6644 8.62065 10.6924C8.36569 10.8374 8.11355 10.9874 7.86029 11.1353C7.53965 11.3227 7.21892 11.51 6.89805 11.697C6.5302 11.9114 6.16435 12.1294 5.79397 12.3394C5.75188 12.3633 5.71047 12.3905 5.66415 12.4072C5.52973 12.4092 5.39538 12.4097 5.26119 12.4074C5.13842 12.4054 5.01662 12.411 4.89571 12.4328C4.88294 12.4331 4.87017 12.4333 4.85741 12.4334C4.82861 12.3993 4.79024 12.3994 4.75001 12.3994C3.42466 12.4001 2.09931 12.4002 0.773967 12.3999C0.727354 12.3999 0.679554 12.4075 0.634277 12.3882C0.650532 12.3538 0.682968 12.3553 0.71251 12.3543C0.795938 12.3516 0.879514 12.3502 0.962942 12.3546C1.01906 12.3689 1.07472 12.3512 1.13069 12.3516C1.32048 12.353 1.51027 12.3538 1.70006 12.351C1.74118 12.3706 1.78297 12.3537 1.82446 12.3534C1.95784 12.3525 2.09122 12.3501 2.2246 12.3543C2.43228 12.3507 2.63996 12.3538 2.84764 12.3509C2.89811 12.3739 2.94918 12.3522 2.99988 12.352C3.14951 12.3516 3.29915 12.3553 3.44863 12.3498C3.49792 12.3664 3.54765 12.3527 3.59708 12.3513C3.78042 12.3588 3.96471 12.363 4.14679 12.3462C4.23534 12.338 4.30941 12.264 4.38861 12.2175C4.92696 11.9017 5.46657 11.5881 6.00521 11.2728C6.44595 11.0148 6.88677 10.7571 7.32751 10.4992C7.73768 10.2592 8.14762 10.0188 8.55919 9.78135C8.62295 9.74454 8.66058 9.70233 8.65241 9.62323C8.64462 9.54744 8.6565 9.47097 8.65494 9.39457C8.65939 9.37001 8.66429 9.34575 8.69754 9.34778Z" fill="#3F46B0"/>
<path d="M0.963291 12.3866C0.853588 12.3874 0.743884 12.3881 0.634255 12.3888C0.435483 12.3682 0.278128 12.2742 0.157959 12.1141C0.236711 12.1052 0.294754 12.0519 0.359329 12.0145C0.772535 11.7753 1.18433 11.5336 1.5965 11.2925C2.0005 11.0561 2.40435 10.8195 2.80835 10.5834C3.13279 10.3937 3.45737 10.2041 3.78218 10.0151C3.81261 9.99737 3.84356 9.97867 3.88082 9.97852C3.91578 9.99497 3.91236 10.0285 3.91392 10.0586C3.91711 10.1203 3.91481 10.1822 3.9157 10.2439C3.91615 10.2748 3.91459 10.3062 3.93589 10.3319C3.98674 10.3653 4.04441 10.37 4.10245 10.3727C4.16265 10.3754 4.22307 10.3677 4.28304 10.3774C4.33158 10.4204 4.29781 10.4497 4.26382 10.4732C4.17994 10.531 4.08909 10.5773 4.00151 10.6288C3.52863 10.907 3.05456 11.1832 2.58093 11.4601C2.16246 11.7048 1.74405 11.9497 1.32454 12.1927C1.206 12.2612 1.09229 12.3385 0.963291 12.3866Z" fill="#474FB7"/>
<path d="M4.8573 12.4338C4.85826 12.4234 4.8593 12.4129 4.86027 12.4025C4.8743 12.3896 4.89167 12.394 4.90762 12.3944C5.41695 12.4042 5.9259 12.3716 6.43531 12.3793C6.60045 12.3818 6.76612 12.3873 6.93083 12.3777C7.27753 12.3573 7.62423 12.374 7.97085 12.3669C8.27361 12.3606 8.5259 12.1748 8.6267 11.886C8.63954 11.8491 8.64206 11.8044 8.68556 11.7852C8.75474 12.2292 8.61267 12.6509 8.1343 12.7809C8.08627 12.794 8.03491 12.7766 7.98904 12.8014C7.97605 12.8305 7.9494 12.8321 7.92335 12.8345C7.88802 12.8377 7.85261 12.8369 7.81728 12.8369C6.9208 12.837 6.02425 12.8371 5.12777 12.8368C5.08079 12.8368 5.03329 12.8413 4.98749 12.8262C4.97947 12.824 4.97153 12.821 4.96396 12.8173C4.93308 12.7985 4.93909 12.7618 4.92536 12.7346C4.91943 12.7104 4.90866 12.6872 4.9077 12.6617C4.89597 12.6329 4.89345 12.6012 4.88172 12.5724C4.8809 12.5512 4.87333 12.5318 4.86643 12.5123C4.86279 12.4889 4.85003 12.4664 4.85893 12.4416C4.85656 12.4394 4.85596 12.4367 4.8573 12.4338Z" fill="#383C6C"/>
<path d="M3.52615 3.61336C4.12121 3.61336 4.71619 3.61336 5.31125 3.61328C5.33485 3.6703 5.29098 3.69223 5.25573 3.71259C5.09399 3.80596 4.93344 3.90158 4.77201 3.99548C4.44906 4.18327 4.12685 4.37241 3.80412 4.56051C3.39151 4.80103 2.97972 5.04283 2.5671 5.28336C2.18515 5.50601 1.80363 5.72955 1.42205 5.95295C0.98947 6.20625 0.556076 6.45811 0.123423 6.71133C0.0906159 6.73056 0.0547657 6.76046 0.0138682 6.72373C0.0138682 6.37481 0.0137939 6.02589 0.0137939 5.67697C0.219024 5.57474 0.412303 5.45087 0.610556 5.33602C1.03378 5.09076 1.45612 4.84385 1.87853 4.59709C2.24987 4.38008 2.62077 4.16224 2.99196 3.94492C3.1347 3.86132 3.27787 3.77839 3.42068 3.69493C3.4592 3.67232 3.50092 3.65369 3.52615 3.61336Z" fill="#555DC0"/>
<path d="M3.88243 10.3765C3.88184 10.2439 3.88125 10.1113 3.88058 9.97867C3.88058 9.69195 3.88058 9.40523 3.88058 9.11843C3.84629 9.09094 3.84844 9.05127 3.84859 9.01372C3.85007 8.69522 3.84109 8.37665 3.85312 8.05823C3.85349 8.04876 3.85111 8.03937 3.84918 8.02998C3.84911 7.52452 3.84183 7.01898 3.85289 6.5136C3.84644 6.44043 3.79671 6.42864 3.7371 6.42864C3.50835 6.42841 3.27966 6.42901 3.0509 6.42841C2.87172 6.42796 2.69247 6.42999 2.5133 6.42714C2.45258 6.42616 2.41339 6.40332 2.40946 6.33692C2.39647 6.11518 2.40285 5.89335 2.40582 5.67153C2.40612 5.65005 2.40975 5.62849 2.4272 5.61272C2.45703 5.59236 2.49103 5.59905 2.52346 5.59905C2.85591 5.59852 3.18836 5.59792 3.52081 5.59935C3.5891 5.59965 3.65657 5.58117 3.72508 5.59191C3.80027 5.58297 3.87575 5.58613 3.95109 5.58613C4.36831 5.5859 4.78552 5.58049 5.20259 5.58778C5.53459 5.59356 5.86652 5.59957 6.1986 5.59897C6.22198 5.5989 6.24603 5.59702 6.26741 5.61039C6.30014 5.63953 6.29331 5.6798 6.29427 5.7166C6.29761 5.84663 6.2939 5.97673 6.2939 6.10676C6.29702 6.18075 6.29724 6.25474 6.29234 6.32858C6.28774 6.39859 6.26533 6.41962 6.19533 6.42593C6.15533 6.42954 6.1151 6.42856 6.07502 6.42856C5.70909 6.42871 5.34309 6.42826 4.97717 6.42879C4.84943 6.42894 4.83644 6.44246 4.83629 6.57407C4.83592 7.0615 4.85336 7.54976 4.8305 8.03607C4.81328 8.40294 4.80074 8.76966 4.81343 9.13548C4.82679 9.51986 4.81588 9.90378 4.82308 10.2879C4.82516 10.3978 4.81989 10.4012 4.71248 10.4015C4.60389 10.4018 4.49456 10.4094 4.38686 10.3997C4.22683 10.3854 4.06703 10.3887 3.907 10.3872C3.89706 10.3872 3.88882 10.3845 3.88243 10.3765Z" fill="#FEFEFE"/>
<path d="M3.87983 8.02922C3.87983 8.39241 3.87983 8.7556 3.87983 9.11879C3.73176 9.1876 3.59518 9.27714 3.45431 9.35894C3.03108 9.6048 2.6083 9.85156 2.18567 10.0985C1.8141 10.3157 1.44298 10.5338 1.07149 10.7512C0.736737 10.947 0.401689 11.1423 0.0669384 11.3382C0.0500896 11.348 0.0332407 11.3549 0.0137939 11.3552C0.0137939 10.992 0.0137939 10.6288 0.0137939 10.2656C0.071763 10.1803 0.168551 10.1513 0.250569 10.1026C0.632823 9.87574 1.01708 9.65234 1.40104 9.42827C1.81959 9.18407 2.23822 8.93994 2.65669 8.69558C3.02833 8.47857 3.40027 8.26215 3.77117 8.04379C3.80487 8.02396 3.83827 7.99346 3.87983 8.02922Z" fill="#4C54BB"/>
<path d="M3.87991 8.02826C3.75462 8.07919 3.64402 8.15753 3.52764 8.22476C3.04451 8.50382 2.56339 8.78634 2.08168 9.06788C1.67961 9.30292 1.27776 9.53841 0.875759 9.77368C0.616642 9.92534 0.357674 10.0774 0.0981868 10.2284C0.0719114 10.2437 0.0420733 10.2527 0.0139424 10.2646C0.0138682 9.75805 0.0138682 9.25146 0.0137939 8.74487C0.0385106 8.6796 0.102046 8.66104 0.153558 8.63085C0.789956 8.25827 1.42635 7.88576 2.0632 7.51401C2.63472 7.18041 3.20521 6.84486 3.77807 6.51352C3.81207 6.49384 3.84413 6.47296 3.87991 6.50857C3.88095 6.9462 3.88213 7.3839 3.88288 7.82154C3.88295 7.89042 3.88095 7.9593 3.87991 8.02826Z" fill="#4F57BD"/>
<path d="M3.87992 6.50888C3.81312 6.51527 3.76406 6.56049 3.70973 6.59204C3.26171 6.85172 2.81488 7.1135 2.3679 7.37498C1.99648 7.59229 1.62648 7.81231 1.25372 8.0273C0.839998 8.26594 0.433101 8.51661 0.0137345 8.74527C0.0134376 8.41084 0.0130664 8.0765 0.0126953 7.74208C0.0130664 7.7372 0.0135118 7.73231 0.0138829 7.72743C0.0593823 7.65066 0.142216 7.62497 0.21221 7.58381C0.814316 7.2294 1.41924 6.87988 2.02098 6.52481C2.12059 6.46606 2.22094 6.40853 2.32159 6.35174C2.35662 6.33198 2.39343 6.29863 2.4373 6.33686C2.43537 6.3917 2.46914 6.39313 2.5113 6.39305C2.93282 6.39185 3.35434 6.3923 3.77586 6.3923C3.88786 6.39222 3.88786 6.39222 3.87992 6.50888Z" fill="#525ABE"/>
<path d="M2.43729 6.33733C2.28728 6.39622 2.15501 6.48869 2.01644 6.56876C1.57102 6.82611 1.12738 7.08662 0.683221 7.34615C0.489645 7.45927 0.296439 7.57285 0.103234 7.68665C0.0746577 7.70348 0.0468237 7.72128 0.0137939 7.72789C0.0137939 7.3934 0.0137939 7.05882 0.0137939 6.72433C0.152148 6.6728 0.270981 6.58476 0.397607 6.51167C0.845995 6.25289 1.29223 5.99029 1.73921 5.7291C2.12087 5.50608 2.50246 5.28283 2.88419 5.05981C3.32716 4.80103 3.77013 4.5424 4.21317 4.2837C4.55824 4.08224 4.90338 3.88107 5.2483 3.67946C5.2751 3.66376 5.29915 3.64445 5.3111 3.61381C5.8873 3.61366 6.4635 3.61351 7.0397 3.61328C7.057 3.66 7.02271 3.67773 6.99272 3.69614C6.81941 3.80228 6.64268 3.90233 6.46729 4.00472C5.70857 4.44783 4.94985 4.89102 4.19165 5.33504C4.07141 5.4055 3.95161 5.47671 3.83047 5.54559C3.77963 5.57451 3.72968 5.60779 3.66867 5.6132C3.28084 5.6132 2.89325 5.61282 2.50565 5.6141C2.48279 5.61417 2.45384 5.59802 2.43595 5.62837C2.44582 5.86476 2.44345 6.10108 2.43729 6.33733Z" fill="#535BBF"/>
<path d="M2.84761 12.3863C2.63979 12.3863 2.43203 12.3862 2.22421 12.3862C2.19697 12.339 2.22844 12.3155 2.26213 12.2957C2.4762 12.17 2.68996 12.0437 2.90454 11.9188C3.26015 11.712 3.61524 11.5044 3.97025 11.2967C4.38242 11.0555 4.79503 10.8152 5.2072 10.574C5.58671 10.3519 5.96666 10.1307 6.34632 9.90887C6.73614 9.68111 7.12619 9.45366 7.51602 9.22583C7.87519 9.01587 8.23421 8.80555 8.59375 8.5962C8.63302 8.57336 8.65409 8.54497 8.65135 8.49907C8.64675 8.42298 8.66144 8.34681 8.65164 8.27056C8.65662 8.20942 8.63524 8.14504 8.67369 8.08818C8.68104 8.08224 8.68891 8.08142 8.69729 8.0857C8.69737 8.26275 8.69744 8.4398 8.69752 8.61685C8.68364 8.72435 8.69507 8.83236 8.69128 8.94001C8.68787 8.99642 8.64393 9.02083 8.60414 9.04404C8.29604 9.22417 7.9883 9.40498 7.68005 9.58474C7.30633 9.80265 6.93269 10.0207 6.55934 10.2393C6.19831 10.4508 5.83684 10.6615 5.47552 10.8725C4.82235 11.2538 4.17014 11.6369 3.516 12.0166C3.334 12.1222 3.15186 12.2276 2.97149 12.3359C2.93178 12.3596 2.88487 12.3599 2.84761 12.3863Z" fill="#434BB3"/>
<path d="M4.82 9.1759C4.97832 9.1013 5.12506 9.00561 5.27603 8.91779C5.69688 8.67306 6.11751 8.42788 6.53791 8.1824C6.90933 7.96546 7.28023 7.74755 7.65157 7.53053C7.95151 7.35521 8.25041 7.17801 8.5528 7.00719C8.64618 6.95446 8.70051 6.89669 8.68715 6.77869C8.67831 6.70034 8.66941 6.61711 8.69732 6.53809C8.69732 6.73407 8.69739 6.92997 8.69739 7.12588C8.68381 7.24343 8.69479 7.36144 8.69123 7.47908C8.68091 7.53008 8.63645 7.54834 8.59941 7.56989C7.91113 7.97027 7.22419 8.3732 6.53665 8.77492C6.00825 9.08365 5.47859 9.39043 4.95204 9.70247C4.92562 9.71817 4.89852 9.73356 4.86913 9.74235C4.84078 9.75084 4.81057 9.75655 4.8096 9.71005C4.8096 9.55456 4.80916 9.39922 4.81012 9.24395C4.81027 9.22134 4.80033 9.1961 4.82 9.1759Z" fill="#474FB7"/>
<path d="M5.68091 12.3871C5.73865 12.3167 5.82357 12.2871 5.89801 12.2432C6.47474 11.9038 7.05294 11.5669 7.63085 11.2296C7.9515 11.0425 8.27178 10.8547 8.59406 10.6705C8.65826 10.6338 8.69099 10.5934 8.68662 10.514C8.68231 10.4367 8.66984 10.3568 8.69767 10.2803C8.69767 10.4667 8.69767 10.6531 8.6976 10.8394C8.68402 10.8789 8.68936 10.92 8.69248 10.9594C8.6979 11.0283 8.6691 11.0729 8.61217 11.1048C8.44524 11.1984 8.28113 11.297 8.11583 11.3934C7.76074 11.6006 7.40595 11.8082 7.05079 12.0152C6.86708 12.1223 6.68434 12.2311 6.50005 12.3371C6.4541 12.3634 6.40378 12.3859 6.34952 12.3943C6.14949 12.3943 5.94967 12.3945 5.74979 12.394C5.72685 12.394 5.7028 12.4004 5.68091 12.3871Z" fill="#3C43AD"/>
<path d="M5.68078 12.387C5.91221 12.387 6.14357 12.387 6.375 12.387C6.41211 12.3631 6.45404 12.3574 6.49658 12.3545C6.51305 12.3534 6.5299 12.3518 6.54601 12.3542C6.80253 12.3922 7.01874 12.3013 7.23459 12.1669C7.66976 11.8959 8.11741 11.6454 8.56053 11.3875C8.61976 11.3531 8.65479 11.3135 8.65323 11.2419C8.65264 11.2122 8.64685 11.1706 8.69747 11.1689C8.69294 11.3743 8.71128 11.5802 8.68545 11.7851C8.64032 12.1302 8.32642 12.4003 7.96666 12.4006C6.96656 12.4014 5.96639 12.401 4.9663 12.4012C4.93089 12.4012 4.89556 12.4021 4.86023 12.4025C4.88665 12.3804 4.91835 12.3873 4.94826 12.3873C5.19246 12.3868 5.43658 12.387 5.68078 12.387Z" fill="#3A41AB"/>
<path d="M8.69755 11.1695C8.67869 11.1975 8.68203 11.2297 8.68485 11.2598C8.69139 11.3291 8.65843 11.3713 8.60239 11.404C8.07993 11.7083 7.55672 12.0112 7.03701 12.3201C6.95343 12.3698 6.8729 12.3923 6.77804 12.3888C6.64384 12.3838 6.50935 12.3875 6.375 12.3875C6.39853 12.3438 6.44492 12.3325 6.48307 12.3101C6.93406 12.046 7.38527 11.7823 7.83655 11.5188C8.08772 11.372 8.33853 11.2247 8.59066 11.0797C8.65554 11.0424 8.69896 10.9985 8.68493 10.9159C8.68062 10.8906 8.68129 10.8631 8.69755 10.8398C8.69747 10.9497 8.69747 11.0596 8.69755 11.1695Z" fill="#3C43AD"/>
<path d="M8.68419 8.96062C8.69206 8.84629 8.66786 8.73069 8.69747 8.61719C8.69747 8.86087 8.69747 9.10455 8.69747 9.3483C8.68397 9.36505 8.68426 9.38511 8.68411 9.40509C8.64752 9.48719 8.56469 9.51018 8.49707 9.55007C7.98848 9.85046 7.47782 10.1472 6.96783 10.4451C6.45776 10.7431 5.94702 11.04 5.4371 11.3382C4.94136 11.628 4.44473 11.9163 3.95017 12.2084C3.84062 12.2731 3.73307 12.3427 3.6126 12.3866C3.56064 12.3866 3.50869 12.3866 3.4568 12.3866C3.43973 12.3381 3.47269 12.3166 3.50579 12.2972C3.75066 12.1539 3.99552 12.0106 4.24046 11.8674C4.61604 11.6479 4.99191 11.429 5.36741 11.2093C5.73066 10.9968 6.09421 10.7851 6.45746 10.5726C7.16356 10.1597 7.86965 9.74657 8.57679 9.33546C8.62971 9.30466 8.65235 9.2665 8.65338 9.20363C8.65465 9.12227 8.62889 9.03559 8.68419 8.96062Z" fill="#4148B2"/>
<path d="M8.69721 8.08568C8.69283 8.08568 8.68852 8.08568 8.68414 8.08568C8.64109 8.06262 8.66581 8.01815 8.65312 7.98555C8.64785 7.86424 8.64978 7.74285 8.65542 7.62153C8.6523 7.5981 8.6549 7.57631 8.67264 7.55881C8.67998 7.5522 8.68815 7.551 8.69713 7.55513C8.69721 7.73196 8.69721 7.90886 8.69721 8.08568Z" fill="#444CB4"/>
<path d="M8.69722 7.55527C8.69291 7.55527 8.68853 7.55535 8.68423 7.55535C8.6659 7.53627 8.66938 7.51711 8.68423 7.49803C8.68423 7.3991 8.68415 7.3001 8.6843 7.20117C8.68438 7.1754 8.68163 7.14896 8.69744 7.12598C8.69737 7.26907 8.69729 7.41217 8.69722 7.55527Z" fill="#464DB6"/>
<path d="M4.81997 9.17625C4.8199 9.36202 4.81982 9.54778 4.81967 9.73362C4.86117 9.76562 4.83986 9.81122 4.84454 9.8511C4.85493 9.97625 4.85115 10.1013 4.84484 10.2265C4.85998 10.4156 4.84922 10.4279 4.66514 10.4284C4.57102 10.4286 4.47691 10.4297 4.38279 10.4275C4.34954 10.4267 4.31643 10.4251 4.29261 10.3963C4.18246 10.3958 4.07224 10.3956 3.96209 10.3946C3.93448 10.3943 3.90508 10.4001 3.88245 10.3765C4.06392 10.3782 4.2454 10.3803 4.42688 10.3816C4.53065 10.3823 4.63463 10.3781 4.73818 10.3831C4.79644 10.3859 4.81403 10.3643 4.80654 10.3103C4.80461 10.2962 4.80624 10.2817 4.80624 10.2674C4.80646 9.00453 4.80728 7.74167 4.8055 6.4788C4.80542 6.41157 4.8193 6.39031 4.88959 6.39091C5.31178 6.39444 5.73412 6.39264 6.1563 6.39256C6.25769 6.39256 6.25725 6.39256 6.25784 6.28642C6.25821 6.22686 6.26007 6.16729 6.26126 6.10772C6.32041 6.02404 6.41624 5.99309 6.4984 5.94479C6.94686 5.68128 7.39592 5.41882 7.8452 5.15666C8.07596 5.02205 8.30479 4.88384 8.5383 4.75434C8.61943 4.70934 8.6653 4.65871 8.6532 4.55881C8.64437 4.48594 8.64994 4.41098 8.65246 4.33699C8.6535 4.30716 8.64771 4.27276 8.6846 4.25684C8.68868 4.27028 8.69648 4.28373 8.6964 4.2971C8.69581 4.57683 8.6944 4.85665 8.69314 5.13646C8.68007 5.16357 8.68423 5.19272 8.68415 5.22111C8.68386 5.44789 8.68267 5.67475 8.6849 5.90152C8.68542 5.95628 8.66627 5.98603 8.61854 6.0136C8.19895 6.25585 7.78129 6.50148 7.36282 6.74576C6.83004 7.05682 6.29718 7.36758 5.76433 7.67842C5.46015 7.85592 5.15613 8.03372 4.85137 8.2101C4.82413 8.22587 4.81685 8.246 4.81693 8.27402C4.81819 8.57471 4.81908 8.87548 4.81997 9.17625Z" fill="#4D55BC"/>
<path d="M3.69763 5.60411C3.77052 5.5181 3.87599 5.48204 3.9684 5.42706C4.34798 5.20133 4.72987 4.97958 5.11123 4.75694C5.52934 4.51288 5.94789 4.26973 6.36599 4.02575C6.57604 3.90316 6.78565 3.77967 6.99556 3.65677C7.01441 3.64573 7.02992 3.63184 7.04084 3.61276C7.38115 3.61261 7.72147 3.61245 8.06179 3.6123C8.19895 3.63056 8.3192 3.689 8.42912 3.77163C8.45904 3.8188 8.42786 3.84111 8.39313 3.86177C8.21194 3.96919 8.0298 4.07473 7.84817 4.18124C7.50318 4.38338 7.15789 4.585 6.81274 4.78683C6.39405 5.03164 5.97527 5.2763 5.5562 5.52043C5.53631 5.532 5.51212 5.53816 5.49987 5.56302C5.52325 5.58022 5.54975 5.57196 5.57417 5.57211C5.77717 5.57331 5.98025 5.57061 6.18325 5.57436C6.21472 5.57496 6.26549 5.56031 6.26022 5.62477C6.22986 5.62251 6.19951 5.61823 6.16915 5.61823C5.38259 5.61785 4.59597 5.61793 3.80941 5.6177C3.78121 5.6177 3.753 5.61583 3.72487 5.61485C3.71597 5.61072 3.7029 5.61748 3.69763 5.60411Z" fill="#525ABE"/>
<path d="M6.26009 5.62447C6.23559 5.59765 6.20323 5.60554 6.17339 5.60547C5.93981 5.60494 5.70623 5.60547 5.47257 5.60464C5.45082 5.60457 5.41772 5.61636 5.41104 5.58691C5.40495 5.5601 5.43694 5.55108 5.45676 5.53951C5.98145 5.23319 6.50636 4.92716 7.03098 4.62068C7.48412 4.35597 7.93696 4.09058 8.39017 3.82594C8.41207 3.81317 8.42906 3.79913 8.42906 3.77148C8.58211 3.89648 8.67282 4.05505 8.68477 4.25629C8.68454 4.38752 8.68343 4.51875 8.68462 4.64998C8.68499 4.69047 8.67044 4.7145 8.63496 4.73516C8.00858 5.10068 7.38295 5.46763 6.75716 5.8342C6.63484 5.90586 6.51282 5.97797 6.38968 6.04821C6.34886 6.07149 6.30818 6.09658 6.26135 6.1071C6.2609 5.9462 6.26046 5.78537 6.26009 5.62447Z" fill="#5058BD"/>
<path d="M4.29261 10.3965C4.43571 10.3961 4.57874 10.3956 4.72185 10.3951C4.81633 10.3947 4.81656 10.3943 4.81759 10.301C4.81789 10.2749 4.81915 10.2488 4.81997 10.2227C4.85463 10.1664 4.91602 10.1469 4.96812 10.1164C5.61936 9.73534 6.27098 9.35495 6.92244 8.97426C7.47987 8.64848 8.03729 8.32262 8.59442 7.99638C8.62232 7.98008 8.65045 7.9559 8.68408 7.98602C8.68408 8.01944 8.68408 8.05295 8.68408 8.08637C8.68408 8.1533 8.68408 8.22016 8.68408 8.28709C8.65906 8.35822 8.59174 8.38008 8.53593 8.41246C7.93679 8.7601 7.33929 9.11052 6.74126 9.45996C6.24522 9.74977 5.74992 10.0409 5.25366 10.3304C4.74307 10.6283 4.23286 10.927 3.7219 11.2242C3.24976 11.4988 2.77843 11.775 2.30726 12.0514C2.15428 12.141 1.99997 12.2286 1.84863 12.3211C1.80179 12.3498 1.74857 12.3626 1.70011 12.3869C1.45442 12.3869 1.20882 12.3869 0.963135 12.3868C0.998688 12.3201 1.07083 12.3039 1.12821 12.27C1.63531 11.9704 2.14404 11.6735 2.6527 11.3767C3.16136 11.0798 3.67083 10.7843 4.17897 10.4864C4.22009 10.4624 4.27405 10.4511 4.29261 10.3965Z" fill="#444CB5"/>
<path d="M1.7002 12.387C1.77204 12.3035 1.87447 12.266 1.9651 12.2124C2.44934 11.9256 2.9361 11.6431 3.4222 11.3596C4.02066 11.0106 4.61965 10.6625 5.21783 10.313C5.71394 10.0231 6.20879 9.73108 6.70483 9.44113C7.21312 9.14404 7.7223 8.84846 8.23103 8.55205C8.38222 8.46393 8.53312 8.37545 8.68417 8.28711C8.68417 8.36598 8.68291 8.44486 8.68461 8.52365C8.68558 8.56639 8.67088 8.59306 8.63258 8.61537C8.02751 8.96752 7.42347 9.32155 6.81877 9.67437C6.18749 10.0427 5.55532 10.4095 4.92427 10.7781C4.42801 11.0679 3.93301 11.3601 3.43689 11.6503C3.05308 11.8748 2.66845 12.0979 2.28389 12.3213C2.25665 12.3371 2.23008 12.352 2.22422 12.387C2.04949 12.3869 1.87484 12.387 1.7002 12.387Z" fill="#444CB4"/>
<path d="M8.68408 8.96094C8.68408 9.05408 8.68192 9.14738 8.68497 9.24045C8.68652 9.28927 8.67049 9.3194 8.62781 9.34403C8.36981 9.49314 8.11329 9.64495 7.85603 9.79541C7.0965 10.2396 6.33689 10.6837 5.5772 11.1276C4.99929 11.4653 4.42131 11.8031 3.84333 12.1406C3.73919 12.2014 3.63476 12.2619 3.52988 12.3214C3.50041 12.3381 3.47451 12.3576 3.45677 12.387C3.25369 12.387 3.05061 12.387 2.84753 12.387C2.93475 12.3004 3.04757 12.2538 3.15052 12.1927C3.53708 11.9634 3.92638 11.7388 4.31457 11.5123C4.75999 11.2524 5.20541 10.9926 5.65061 10.7323C6.05498 10.4959 6.45876 10.2586 6.86321 10.0223C7.28399 9.77656 7.70521 9.53153 8.12621 9.28619C8.31214 9.1778 8.49814 9.06941 8.68408 8.96094Z" fill="#4249B2"/>
<path d="M3.61267 12.3869C3.68445 12.2993 3.79066 12.2641 3.883 12.2091C4.26287 11.983 4.64513 11.761 5.02694 11.5382C5.44757 11.2928 5.86886 11.0487 6.28934 10.8031C6.66083 10.5861 7.03129 10.3673 7.40285 10.1504C7.82957 9.90142 8.25695 9.65361 8.68404 9.40527C8.68404 9.49834 8.68285 9.59149 8.68448 9.68456C8.68522 9.72722 8.67105 9.75442 8.63282 9.77658C8.21197 10.0213 7.79223 10.2679 7.37198 10.5135C7.02921 10.714 6.68607 10.9135 6.3433 11.1139C5.92297 11.3595 5.50271 11.6052 5.08275 11.8514C4.78719 12.0247 4.49223 12.199 4.19726 12.3733C4.17084 12.3889 4.14293 12.3871 4.11487 12.3871C3.94764 12.3873 3.78012 12.387 3.61267 12.3869Z" fill="#4148B1"/>
<path d="M3.69759 5.60449C3.70664 5.6081 3.71562 5.61163 3.72468 5.61523C3.32543 5.61629 2.92618 5.61719 2.52692 5.61854C2.49679 5.61861 2.46561 5.61283 2.43689 5.6283C2.46198 5.59698 2.49723 5.60629 2.52922 5.60622C2.91868 5.60524 3.30813 5.60494 3.69759 5.60449Z" fill="#555DC0"/>
<path d="M4.81988 9.84959C4.8198 9.8109 4.81965 9.77214 4.81958 9.73346C5.1377 9.56136 5.44559 9.37132 5.75837 9.18983C6.17944 8.9454 6.59999 8.70007 7.0204 8.45444C7.3939 8.23622 7.76672 8.01703 8.13992 7.79829C8.30099 7.70387 8.46206 7.60929 8.62379 7.51607C8.64153 7.50586 8.6638 7.50391 8.68399 7.49805C8.68399 7.51713 8.68399 7.53628 8.68399 7.55536C8.68399 7.57444 8.68399 7.5936 8.68399 7.61268C8.66669 7.64791 8.64012 7.67224 8.6062 7.6923C8.28496 7.8825 7.96112 8.06826 7.63936 8.25756C7.32168 8.44445 7.00311 8.62968 6.68476 8.81545C6.30117 9.03937 5.9178 9.26375 5.53421 9.48782C5.33425 9.60455 5.13362 9.72008 4.93455 9.83839C4.89937 9.85943 4.86226 9.89067 4.81988 9.84959Z" fill="#464EB7"/>
<path d="M4.82007 9.85004C4.91203 9.83449 4.98032 9.77079 5.05721 9.72632C5.49722 9.4722 5.93469 9.2135 6.37358 8.95728C6.79406 8.71179 7.21528 8.46759 7.63591 8.22233C7.94832 8.04017 8.26013 7.85704 8.57247 7.67465C8.60921 7.65317 8.64699 7.63364 8.68433 7.61328C8.68433 7.73752 8.68433 7.86177 8.68433 7.98601C8.53514 8.07232 8.38572 8.15826 8.23683 8.24502C7.79163 8.50462 7.34666 8.76452 6.90161 9.02435C6.52188 9.24603 6.14207 9.46755 5.76257 9.68967C5.48103 9.85447 5.20002 10.0203 4.91842 10.1848C4.88806 10.2026 4.85711 10.2214 4.82014 10.2227C4.82014 10.0985 4.82007 9.97429 4.82007 9.85004Z" fill="#464DB6"/>
<g clip-path="url(#clip0)">
<path d="M5.25916 13.6092C5.18278 13.4869 5.12786 13.3543 5.07434 13.2209C5.07746 13.2064 5.08406 13.1941 5.09676 13.1859C5.14879 13.1638 5.20364 13.1719 5.25738 13.1718C6.3772 13.1712 7.49702 13.1711 8.61684 13.172C8.72587 13.1721 8.83327 13.1651 8.93941 13.1389C8.96829 13.1318 8.99939 13.119 9.02537 13.1479L9.02982 13.1483C8.9245 13.376 8.75645 13.5282 8.5107 13.5829C8.43729 13.5992 8.36203 13.6064 8.28632 13.6063C7.28407 13.6052 6.28175 13.6044 5.2795 13.6039C5.27267 13.6038 5.26591 13.6073 5.25916 13.6092Z" fill="#6269BB"/>
<path d="M5.09116 13.2049C5.07751 13.1766 5.06392 13.1483 5.05034 13.12C5.01716 13.0142 4.98398 12.9083 4.95081 12.8026C5.9604 12.8027 6.97007 12.8029 7.97967 12.803C8.14192 12.7996 8.3041 12.8131 8.46643 12.792C8.76689 12.7531 9.05689 12.4752 9.07292 12.1424C9.07359 12.1286 9.08034 12.1152 9.08427 12.1016C9.0845 12.3654 9.08702 12.6292 9.08368 12.893C9.08257 12.9807 9.06386 13.0676 9.02541 13.1482C8.90391 13.1911 8.77921 13.2068 8.65029 13.2065C7.46389 13.2048 6.27756 13.2051 5.09116 13.2049Z" fill="#585EA8"/>
</g>
<defs>
<clipPath id="clip0">
<rect width="4.13458" height="1.50782" fill="white" transform="translate(4.95081 12.1016)"/>
</clipPath>
</defs>
</svg>
